<?xml version="1.0" encoding="UTF-8" standalone="no"?>
<!-- Created with Inkscape (http://www.inkscape.org/) -->

<svg
   width="210mm"
   height="297mm"
   viewBox="0 0 210 297"
   version="1.1"
   id="svg1"
   inkscape:version="1.4.2 (f4327f4, 2025-05-13)"
   sodipodi:docname="quit button.svg"
   inkscape:export-filename="quit button.png"
   inkscape:export-xdpi="96"
   inkscape:export-ydpi="96"
   xmlns:inkscape="http://www.inkscape.org/namespaces/inkscape"
   xmlns:sodipodi="http://sodipodi.sourceforge.net/DTD/sodipodi-0.dtd"
   xmlns="http://www.w3.org/2000/svg"
   xmlns:svg="http://www.w3.org/2000/svg">
  <sodipodi:namedview
     id="namedview1"
     pagecolor="#555555"
     bordercolor="#000000"
     borderopacity="0.25"
     inkscape:showpageshadow="2"
     inkscape:pageopacity="0.0"
     inkscape:pagecheckerboard="0"
     inkscape:deskcolor="#d1d1d1"
     inkscape:document-units="mm"
     inkscape:zoom="0.86"
     inkscape:cx="397.09302"
     inkscape:cy="561.62791"
     inkscape:window-width="1920"
     inkscape:window-height="988"
     inkscape:window-x="-12"
     inkscape:window-y="-12"
     inkscape:window-maximized="1"
     inkscape:current-layer="layer1" />
  <defs
     id="defs1">
    <rect
       x="218.01002"
       y="616.92197"
       width="301.50322"
       height="142.24768"
       id="rect5" />
    <rect
       x="190.17895"
       y="620.01432"
       width="299.95705"
       height="103.59341"
       id="rect3" />
    <rect
       x="284.49535"
       y="381.90408"
       width="235.0179"
       height="74.216177"
       id="rect2" />
    <rect
       x="254.18502"
       y="379.73568"
       width="277.53304"
       height="122.02643"
       id="rect45" />
    <clipPath
       clipPathUnits="userSpaceOnUse"
       id="clipPath9">
      <path
         id="path10"
         style="fill:#aa4724;fill-opacity:1;stroke-width:0.260115"
         d="m 157.22942,87.614601 -89.196621,0.402244 c -8.201805,0.03702 -22.179084,2.064792 -22.497222,16.469105 8.691095,3.21068 9.143588,3.19688 9.165159,3.19147 l -9.083953,3.5714 0.07766,5.45597 6.664507,-3.05219 -6.575689,9.28365 0.07765,5.42444 5.859044,5.35273 H 45.93958 c 0.163986,4.14091 3.46846,7.44278 7.628835,7.44278 H 157.22941 c 4.22922,0 7.63442,-3.41182 7.63442,-7.64924 v -5.80735 l -7.49586,-0.38852 7.49586,-4.39264 V 102.4198 l -9.19967,-2.425657 9.19967,-2.077334 v -2.653482 c 0,-4.237434 -3.40523,-7.667815 -7.63442,-7.648726 z" />
    </clipPath>
  </defs>
  <g
     inkscape:label="Layer 1"
     inkscape:groupmode="layer"
     id="layer1">
    <path
       id="path37"
       style="fill:#4f151a;stroke-width:0.267626"
       d="M 157.26531,90.665442 63.631776,91.07108 c -8.609788,0.03732 -23.282341,2.082215 -23.616303,16.60809 9.123414,3.23775 9.598417,3.22386 9.621062,3.21843 l -9.535817,3.60151 0.08151,5.50199 6.996022,-3.07792 -6.902783,9.36199 0.0815,5.47023 6.150491,5.39789 H 40.43955 c 0.172143,4.17587 3.64099,7.50558 8.008316,7.50558 H 157.26531 c 4.4396,0 8.01418,-3.44059 8.01418,-7.71379 v -5.85635 l -7.86873,-0.3918 7.86873,-4.42971 v -20.67163 l -9.6573,-2.44613 9.6573,-2.09486 v -2.675883 c 0,-4.273195 -3.57462,-7.732527 -8.01418,-7.713275 z" />
    <path
       id="rect1"
       style="fill:#db7734;fill-opacity:1;stroke-width:0.257345"
       d="m 156.43768,90.64591 -90.203505,0.389332 c -8.294391,0.03584 -22.429452,1.998519 -22.751182,15.940488 8.789202,3.10762 9.246804,3.0943 9.268621,3.08908 l -9.186498,3.45674 0.07853,5.28083 6.739741,-2.9542 -6.649919,8.98566 0.07852,5.25034 5.925183,5.18093 h -5.845626 c 0.165837,4.00801 3.507612,7.20388 7.714954,7.20388 H 156.43767 c 4.27698,0 7.7206,-3.3023 7.7206,-7.40372 v -5.62095 l -7.58046,-0.37605 7.58046,-4.25165 v -19.8407 l -9.30351,-2.34781 9.30351,-2.01066 v -2.568312 c 0,-4.101428 -3.44367,-7.421705 -7.7206,-7.403228 z" />
    <path
       style="fill:#4f151a;fill-opacity:1;stroke-width:0.264583"
       d="m 42.940573,105.83333 c 7.807378,4.33743 18.217213,0.43374 8.24112,4.77118"
       id="path1" />
    <path
       style="fill:#154f23;fill-opacity:1;stroke-width:0.264583"
       d="m 41.639344,131.85792 c 8.457991,5.63866 8.457991,5.63866 8.457991,5.63866"
       id="path4" />
    <path
       id="path7"
       style="fill:#88391d;fill-opacity:1;stroke-width:0.247002"
       d="m 155.51148,91.636521 -88.057025,0.367402 c -8.097014,0.03382 -21.895719,1.885942 -22.209792,15.042577 8.580055,2.93258 9.026766,2.91996 9.048061,2.91503 l -8.967893,3.26205 0.07667,4.98338 6.579363,-2.78782 -6.491678,8.47952 0.07667,4.95458 5.784188,4.88909 h -5.706525 c 0.16189,3.78224 3.424146,6.7981 7.531368,6.7981 H 155.51149 c 4.17521,0 7.53689,-3.11629 7.53689,-6.98667 v -5.30433 l -7.40009,-0.35488 7.40009,-4.01215 v -18.72307 l -9.08214,-2.21557 9.08214,-1.8974 v -2.423633 c 0,-3.870395 -3.36172,-7.003642 -7.53689,-6.986206 z" />
    <path
       style="fill:#501616;fill-opacity:1;stroke-width:0.416155"
       d="M 102.60902,139.68862 C 78.272643,126.14728 77.668009,125.55855 77.668009,125.55855 l 2.871997,7.21222 -1.058104,-4.56284 z"
       id="path17" />
    <path
       style="opacity:0.515679;fill:#632718;fill-opacity:1;stroke-width:0.256684"
       d="m -1.9518444,106.1594 c 0.5510808,-0.10711 1.12105657,-0.18558 1.65324472,-0.32134 7.28212748,-1.85758 9.83684918,-2.65243 17.63461268,-4.01641 7.634867,-1.33548 15.514361,-2.183742 23.145431,-3.534442 10.406062,-1.841883 20.677741,-4.051305 31.136112,-5.783652 4.007076,-0.66374 8.091467,-1.157684 12.123801,-1.767226 0.928217,-0.140313 1.807644,-0.396953 2.755398,-0.481969 2.646648,-0.237408 5.325684,-0.329634 7.99069,-0.481971 6.523165,-0.372883 13.001085,-0.727655 19.563395,-0.642627 3.76927,0.04884 7.52772,0.277357 11.29719,0.321315 2.84666,0.03319 5.70357,-0.13239 8.54176,0 1.77765,0.08293 3.46331,0.525222 5.23528,0.642626 2.2833,0.151285 4.60053,0.03559 6.8885,0.160657 0.66575,0.03639 1.27132,0.250324 1.92879,0.321314 2.37571,0.256516 4.82528,0.289085 7.16407,0.642626 4.57529,0.691619 9.22161,1.5377 13.50151,2.731168 0.59749,0.166615 1.04447,0.490506 1.65323,0.642627 0.69616,0.173955 1.49845,0.161256 2.20433,0.321314 1.77457,0.402376 5.77875,1.567107 7.4396,2.088539 0.22873,0.07181 0.34601,0.228318 0.55108,0.321313 0.62367,0.282833 1.27139,0.547758 1.92878,0.803282 0.44561,0.173219 1.01745,0.250921 1.37772,0.48198 0.58286,0.373831 0.85781,0.881078 1.3777,1.285246 0.31173,0.24235 0.80875,0.39262 1.10216,0.64262 1.30149,1.10908 2.21184,1.78256 2.75541,2.89184 0.56692,1.15691 2.06411,3.51898 1.3777,4.8197 -1.20222,2.27814 -4.63434,5.05829 -6.61297,6.74759 0.18202,1.63049 -2.69764,1.76498 -3.85758,2.73116 -0.42465,0.3537 -0.61455,0.79967 -1.10216,1.12459 -0.19124,0.12744 -0.595,0.0585 -0.82662,0.16066 -3.17981,1.40304 -6.14633,2.96788 -9.36838,4.33773 -3.26227,1.38696 -3.25881,0.9745 -6.06191,1.92789 -0.39669,0.13492 -0.70071,0.35194 -1.10218,0.48197 -2.74883,0.89043 -6.01086,1.27039 -8.8173,2.08854 -6.27842,1.83036 -18.26131,6.2409 -27.82962,8.19351 -1.64524,0.33574 -3.71022,0.78895 -5.51081,0.96393 -1.31647,0.12794 -1.34,-0.0859 -3.03095,0.16065 -8.68281,1.26565 -10.56237,1.96667 -17.910159,2.40986 -2.724652,0.16434 -5.538651,-0.14456 -8.266226,0 -2.85907,0.15155 -5.685144,0.47608 -8.541758,0.64262 -0.822519,0.0481 -1.653251,0 -2.47987,0 -2.66356,0 -5.329637,0.0675 -7.990685,0 -2.22735,0.96591 -3.841351,-0.41525 -5.786354,-0.48197 -2.75218,-0.0944 -5.510413,-0.11473 -8.266228,-0.16065 -0.459046,-0.007 -0.927387,0.0525 -1.377703,0 -4.256321,-0.49634 -8.282796,-1.49914 -12.399335,-2.24919 -2.661931,-0.48503 -5.313358,-0.9906 -7.990683,-1.44592 -0.469222,-0.0798 -1.88772,-0.11415 -2.479868,-0.3213 -0.686422,-0.24014 -1.994225,-1.21014 -2.479867,-1.60659 -2.289449,-1.86883 -1.92879,-3.19143 -1.92879,-5.46233 0,-0.84309 -0.336407,-2.45844 0,-3.37378 0.379459,-1.03249 1.850875,-3.69565 3.030951,-4.4984 0.84532,-0.57501 1.863544,-1.05596 2.75541,-1.60657 0.670381,-0.41387 1.238404,-0.88271 1.928785,-1.28525 1.791603,-1.04461 3.691003,-2.02459 5.510814,-3.05248 1.184149,-0.66885 3.319266,-2.06162 4.959736,-2.73116 8.511825,-3.47404 18.884323,-7.42762 28.656247,-9.47875 0.712615,-0.1496 1.47608,-0.2 2.204325,-0.32133 2.595265,-0.43233 4.654263,-0.88099 7.439604,-1.12459 0.454155,-0.0397 0.930971,0.0621 1.3777,0 1.497772,-0.20793 2.91786,-0.57896 4.40866,-0.80329 1.377698,-0.16065 2.755398,-0.32131 4.133108,-0.481973 0.27554,0 0.554823,0.02642 0.82662,0 2.25231,-0.129364 4.39558,-0.575125 6.612986,-0.803276 0.72922,-0.07502 1.47821,-0.07599 2.20432,-0.160653 0.65566,-0.07639 1.26599,-0.269793 1.9288,-0.321327 1.27458,-0.09908 2.57171,0 3.85756,0 3.03095,0 6.0619,0 9.09285,0 1.71166,0 5.02651,-0.167019 6.88851,0 1.23652,0.110922 4.25063,0.9205 5.51083,1.124603 3.76748,0.610196 7.57806,1.044426 11.29718,1.767226 0.90969,0.17681 1.89772,0.23194 2.7554,0.48197 0.23236,0.0676 0.33492,0.2373 0.55109,0.32131 0.64831,0.25201 1.36509,0.31396 1.92877,0.64263 0.45761,0.26681 1.9388,2.06151 2.20432,2.40985 0.56916,0.74668 0.39798,1.69133 1.10218,2.40985 0.22785,0.23248 0.68139,0.3886 0.82662,0.64264 0.15885,0.27787 0.0957,2.61235 0,2.89182 -0.62602,1.82508 -0.19433,0.3495 -0.82662,0.96393 -0.72269,0.70228 -1.31301,1.46492 -2.20433,2.08856 -0.74838,0.52362 -1.68994,0.94346 -2.47987,1.44591 -7.05677,4.48856 5.68778,-3.31632 -4.40866,2.57051 -0.76085,0.44361 -0.32443,0.61301 -1.3777,0.96394 -0.58055,0.19342 -1.31619,0.16506 -1.92877,0.32131 -1.20481,0.30732 -2.39779,0.63058 -3.58204,0.96394 -2.44699,0.68876 -5.08864,1.57806 -7.71514,2.08853 -0.4443,0.0863 -0.91848,0.10711 -1.3777,0.16065 -1.46956,0.32132 -2.95143,0.62409 -4.40866,0.96397 -0.8399,0.19587 -1.6217,0.47583 -2.47988,0.64262 -0.26141,0.051 -0.55929,-0.0389 -0.8266,0 -7.88301,1.14906 1.4926,0.33093 -10.74611,1.4459 -0.54448,0.0498 -1.10443,-0.029 -1.65323,0 -2.44072,0.12938 -4.75739,0.69408 -7.164078,0.96396 -1.214507,0.13617 -2.876591,0 -4.133108,0 -2.181109,0 -4.445518,0.11487 -6.612967,0 -1.676352,-0.0888 -3.335324,-0.30977 -4.95974,-0.48199 -0.734772,-0.0536 -1.469569,-0.10709 -2.20433,-0.16065 -0.27554,-0.10711 -0.50943,-0.26584 -0.826631,-0.32132 -0.622053,-0.1088 -1.298715,-0.0688 -1.928778,-0.16065 -0.126011,-0.0185 -0.148173,-0.14582 -0.275542,-0.16066 -0.360256,-0.0421 -0.758169,0.0752 -1.102162,0 -0.429998,-0.094 -0.708374,-0.34421 -1.102166,-0.48197 -1.611043,-0.5636 -1.865888,-0.37952 -3.030947,-1.28524 -0.233805,-0.18178 -0.732112,-0.26156 -0.826624,-0.48199 -0.176083,-0.41066 0,-1.02098 0,-1.4459 0,-0.48717 -0.200342,-1.13933 0,-1.60658 0.596704,-1.39165 5.857733,-3.38651 7.439599,-4.17707 1.161011,-0.58023 0.400907,-0.55714 1.377711,-0.96394 2.308229,-0.96132 5.038117,-1.5482 7.43961,-2.40987 0.67287,-0.24143 1.22209,-0.59724 1.928779,-0.80328 0.598058,-0.17434 1.307952,-0.17651 1.928778,-0.32132 0.762762,-0.17788 1.456458,-0.44441 2.204331,-0.64263 1.137264,-0.30139 2.412317,-0.38686 3.582017,-0.64262 1.804846,-0.39461 3.370698,-1.11974 5.235298,-1.4459 0.26391,-0.0461 0.5593,0.0389 0.82661,0 4.41038,-0.64289 7.91269,-2.20318 12.67489,-1.44591 0.47718,0.0759 0.90211,0.2421 1.3777,0.3213 0.26493,0.0442 0.56524,-0.0508 0.82661,0 0.92662,0.18011 0.86723,0.55301 1.10217,0.96395 0.16165,0.28274 0.68396,0.55373 0.82662,0.80328 0.14456,0.25287 0.1829,3.80313 0,4.01643 -0.0685,0.08 -0.71038,0.89616 -0.82662,0.96395 -0.14521,0.0846 -0.43716,0.061 -0.55109,0.16064 -0.10192,0.0891 0.058,0.21972 0,0.32132 -0.0822,0.1437 -0.43489,0.18583 -0.55108,0.32132 -0.0409,0.048 0.0648,0.12277 0,0.16065 -0.14522,0.0846 -0.40585,0.076 -0.55107,0.16067 -0.14523,0.0846 -0.1303,0.23663 -0.27554,0.3213 -0.20538,0.11974 -0.58496,0.0668 -0.82664,0.16066 -0.70972,0.27587 -1.3246,0.77232 -1.92878,1.12458 -0.80331,0.46841 -1.45622,1.1475 -2.47986,1.44593 -0.66131,0.19277 -1.81857,-0.19279 -2.47988,0 -0.1699,0.0496 -1.34361,0.60289 -1.37769,0.64263 -0.0409,0.0481 0.0648,0.12277 0,0.16065 -0.0649,0.038 -0.2106,-0.0379 -0.27555,0 -0.95065,0.55431 3.72482,0.48197 3.85757,0.48197 0.40815,0 1.30408,-0.0509 1.65326,0 0.12598,0.0185 0.15231,0.1367 0.27554,0.16066 0.70481,0.13698 6.99286,0.097 7.99068,0 1.78711,-0.17367 3.13601,-1.15522 4.68419,-1.60658 1.05113,-0.30643 2.25485,-0.49668 3.3065,-0.80327 2.00199,-0.58365 -0.16003,-0.045 1.37768,-0.64264 0.91095,-0.35409 2.17814,-0.56615 3.03096,-0.96393 0.16037,-0.0748 0.1303,-0.23665 0.27555,-0.32131 0.66922,-0.3902 0.40459,0.0479 0.82662,-0.32132 0.11384,-0.0996 0.13029,-0.23664 0.27553,-0.32131 0.41587,-0.24247 0.8517,-0.48928 1.37772,-0.64262 0.67864,-0.19785 -0.24875,0.46633 0.82662,-0.16066 0.39683,-0.23138 0.57722,-0.59924 1.10216,-0.80329 0.17089,-0.0664 0.43717,-0.061 0.55107,-0.16067 0.35825,-0.31329 0.55108,-4.63363 0.55108,-5.14101 0,-0.56386 0.29903,-2.87813 -0.27553,-3.21312 -0.14522,-0.0846 -0.38021,-0.0942 -0.55108,-0.16068 -0.42151,-0.16384 -0.66892,-0.49104 -1.10215,-0.64262 -0.52834,-0.18482 -1.16036,-0.26643 -1.65328,-0.48197 -0.2078,-0.0909 -0.33491,-0.2373 -0.55105,-0.32132 -0.30827,-0.11983 -1.26247,0 -1.65326,0 -0.55107,0 -1.14157,0.11934 -1.65324,0 -0.2412,-0.0562 -0.31872,-0.25356 -0.55107,-0.3213 -0.39264,-0.11446 -1.26498,0.0905 -1.65326,0 -0.2412,-0.0564 -0.30988,-0.26507 -0.55107,-0.32132 -0.51874,-0.12098 -1.13453,-0.0397 -1.65325,-0.16065 -1.15056,-0.26835 -2.0518,-0.64073 -3.30649,-0.80329 -0.68887,-0.0893 -0.7654,0.0596 -1.3777,0 -0.36738,-0.0536 -0.73478,-0.10711 -1.10216,-0.16067 -0.18371,-0.0536 -0.35184,-0.1316 -0.55109,-0.16065 -1.03733,-0.1512 -2.26917,0.15121 -3.30649,0 -4.18201,-0.60957 -8.59827,-0.48198 -12.95041,-0.48198 -1.81808,0 -5.32189,-0.20298 -6.888534,0 -0.37994,0.0493 -2.203368,0.61039 -2.479861,0.64263 -0.540399,0.063 -1.146718,-0.12655 -1.653251,0 -0.492253,0.12302 -0.888295,0.35516 -1.377699,0.48197 -0.446144,0.11562 -2.525454,0.43285 -3.030949,0.48199 -0.634177,0.0618 -1.294602,-0.0618 -1.928791,0 -1.50458,0.1462 -2.962932,0.5223 -4.408649,0.80327 -0.359256,0.0698 -0.763441,0.062 -1.102159,0.16067 -0.232364,0.0676 -0.307855,0.26813 -0.551079,0.32131 -0.523114,0.11436 -1.111254,0.0817 -1.653251,0.16065 -1.415654,0.20635 -3.369522,0.37744 -4.684197,0.80328 -1.679113,0.54392 -1.119547,0.605 -2.479866,0.80329 -2.067584,0.30138 -4.247837,0.58013 -6.061899,1.28526 -1.560545,0.60658 -3.193046,1.27581 -4.684195,1.92788 -0.207822,0.0909 -0.40698,0.19529 -0.55108,0.32131 -0.05095,0.0446 0.07642,0.13095 0,0.16067 -0.241666,0.0939 -0.58496,0.0667 -0.826624,0.16064 -1.156133,0.44939 -3.52274,1.96789 -4.408652,2.57052 -0.438131,0.29801 -1.445359,0.90941 -1.928787,1.28524 -1.017967,0.79139 1.048562,-0.29006 -1.102163,0.96396 -0.234163,0.13653 -0.592455,0.18476 -0.826622,0.3213 -0.145223,0.0846 -0.161619,0.22168 -0.275539,0.32132 -0.422016,0.36908 -0.15739,-0.0689 -0.826624,0.32132 -0.145225,0.0846 -0.147245,0.2278 -0.275541,0.32132 -0.243426,0.1774 -0.592817,0.30019 -0.826624,0.48196 -0.165321,0.12851 0.152841,0.34828 0,0.48196 -0.113911,0.0996 -0.40586,0.076 -0.551079,0.16066 -0.498271,0.29053 -0.884034,1.28862 -1.102163,1.60658 -0.723215,1.05419 -1.684037,2.07149 -1.928788,3.21312 -0.06836,0.31883 0.05483,0.64423 0,0.96395 -0.30131,1.75684 -0.919148,5.35442 0.551083,7.06891 0.296198,0.34541 0.805967,0.61853 1.102165,0.96394 0.08214,0.0958 -0.05809,0.2197 0,0.32131 0.12058,0.21092 1.38226,1.87786 1.653243,2.08853 0.275539,0.21421 0.777434,0.29263 1.102163,0.48197 2.600063,1.516 5.163929,2.39253 8.541765,3.21314 1.072417,0.26053 2.189408,0.45655 3.306491,0.64262 0.450309,0.075 0.949738,0.0498 1.377703,0.16067 0.419657,0.10874 0.666494,0.3973 1.102165,0.48196 0.784203,0.15242 1.653243,0 2.479867,0 2.571713,0 5.143426,0 7.715143,0 2.939097,0 5.878213,0 8.817316,0 0.947742,0 2.176627,0.16604 3.03095,0 0.744451,-0.14469 1.447218,-0.36157 2.204318,-0.48196 0.531661,-0.0845 1.141579,0.11933 1.653251,0 0.241184,-0.0563 0.304625,-0.27342 0.551067,-0.32132 0.34854,-0.0678 0.753631,0.0677 1.102171,0 0.50807,-0.0987 0.898679,-0.34232 1.377699,-0.48197 1.356493,-0.39545 3.079048,-0.36029 4.408659,-0.80328 1.071947,-0.35715 1.861397,-0.69118 3.030937,-0.96396 1.20804,-0.28172 2.17407,-0.21785 3.30651,-0.48196 1.03103,-0.24047 0.0838,-0.10477 1.37771,-0.48197 0.51954,-0.15147 1.11931,-0.18789 1.65322,-0.32131 1.46226,-0.36539 2.895,-0.83042 4.40866,-1.12459 0.80333,-0.15614 1.69365,-0.13795 2.47987,-0.32133 0.38137,-0.0889 0.70723,-0.25551 1.10215,-0.3213 0.99181,-0.16523 2.29164,-0.0128 3.3065,-0.16067 0.0306,-0.005 1.85789,-0.4531 2.20433,-0.48196 0.36369,-0.0304 0.74574,0.0519 1.10216,0 0.36739,-0.0536 1.19401,-0.37486 1.65325,-0.48197 0.51871,-0.12098 1.13453,-0.0397 1.65324,-0.16065 0.2412,-0.0563 0.3674,-0.21422 0.55109,-0.32132 0.36739,-0.10711 0.7072,-0.25551 1.10216,-0.32131 0.26493,-0.0442 0.55932,0.0389 0.8266,0 1.75985,-0.25654 1.07826,-0.36867 2.75543,-0.8033 0.61103,-0.15833 1.30269,-0.18441 1.92879,-0.3213 1.47746,-0.32305 2.7334,-0.71654 4.13311,-1.12459 1.06794,-0.31135 2.21538,-0.52055 3.30649,-0.80328 0.73465,-0.19039 1.4345,-0.5144 2.20432,-0.64264 0.45032,-0.075 0.94725,-0.053 1.37771,-0.16067 0.23879,-0.0598 0.32832,-0.24337 0.55107,-0.3213 0.85415,-0.29881 1.88845,-0.30564 2.75542,-0.64263 0.64845,-0.25205 1.07656,-0.65826 1.65323,-0.96394 1.9319,-1.02401 4.03556,-2.28553 6.33745,-3.05249 0.93688,-0.31214 2.14485,-0.41579 3.03095,-0.80328 0.77407,-0.3385 0.97304,-0.65269 1.37771,-1.1246 0.2187,-0.25503 0.80551,-0.41198 1.10216,-0.64263 1.02543,-0.79718 2.22624,-1.47938 3.3065,-2.24918 1.55154,-1.10571 0.51886,-0.84126 1.65325,-1.76722 2.81617,-2.29884 -1.65018,2.08493 1.3777,-1.44593 0.11609,-0.13546 0.41741,-0.19142 0.55107,-0.32132 0.81421,-0.79121 0.55108,-1.86485 0.55108,-2.73115 0,-0.32132 0.17427,-0.65912 0,-0.96395 -1.33057,-2.32741 0.15888,0.50658 -1.10215,-0.96393 -0.0822,-0.0958 0.0724,-0.22288 0,-0.32133 -0.45662,-0.62119 -1.63934,-1.75505 -2.20435,-2.24918 -0.53019,-0.46374 -1.283,-0.74808 -1.92878,-1.12459 -0.14522,-0.0846 -0.1303,-0.23666 -0.27553,-0.32133 -0.14522,-0.0846 -0.42785,-0.0648 -0.55109,-0.16065 -0.32282,-0.25096 -0.15815,-0.57417 -0.55109,-0.80328 -0.70265,-0.40971 -1.96184,-0.59379 -2.7554,-0.96396 -0.71441,-0.33323 -1.48768,-0.62965 -2.20431,-0.96393 -0.40573,-0.18924 -0.65666,-0.48677 -1.10216,-0.64263 -0.91143,-0.31883 -2.1478,-0.459992 -3.03098,-0.803286 -0.32421,-0.12602 -0.47807,-0.380361 -0.8266,-0.481969 -0.85769,-0.250039 -1.87915,-0.254897 -2.75543,-0.481961 -2.36531,-0.612949 -4.44911,-1.453784 -6.8885,-1.927895 -0.43567,-0.08468 -0.92472,0.04398 -1.37773,0 -2.19641,-0.213435 -4.36512,-0.523475 -6.61296,-0.642625 -2.2509,-0.119308 -4.99274,0.25321 -7.16406,0 -0.48499,-0.05656 -0.90214,-0.242087 -1.37772,-0.321312 -1.17573,-0.195866 -2.6473,0.11761 -3.85755,0 -0.20258,-0.01966 -0.34697,-0.147431 -0.55109,-0.160656 -1.1738,-0.07605 -2.40911,0.08548 -3.58204,0 -3.03822,-0.221433 -6.02029,-0.160655 -9.09282,-0.160655 -2.70038,0 -5.30814,0.03033 -7.99072,0.160655 -2.390907,0.116174 -4.776546,0.05615 -7.164046,0.321316 -1.028717,0.11425 -2.005736,0.357434 -3.030961,0.481973 -2.557472,0.310656 -5.149727,0.515632 -7.715138,0.803271 -1.008394,0.113077 -2.050808,0.142741 -3.030938,0.321324 -0.511182,0.09314 -0.874396,0.37526 -1.377711,0.48198 -0.525045,0.111314 -1.11124,0.08168 -1.65324,0.160644 -10.673111,1.778018 2.258462,-0.28467 -7.164062,0.963941 -2.523663,0.334421 -2.814657,0.571893 -5.235277,0.963945 -2.562558,0.41504 -3.035341,0.26861 -5.786358,0.80327 -0.858166,0.1668 -1.62685,0.4671 -2.479864,0.64263 -1.344564,0.27671 -2.788552,0.36594 -4.133116,0.64263 -4.756903,0.97891 -0.801575,0.26515 -5.786356,1.60658 -0.166786,0.0449 -0.379631,-0.0385 -0.551084,0 -1.035814,0.23229 -2.00475,0.5569 -3.030948,0.80328 -1.874557,0.45004 -3.854817,0.77266 -5.786356,1.12459 -2.13886,0.38972 -4.200024,0.8958 -6.337439,1.28527 -1.722365,0.31381 -3.523371,0.47056 -5.235276,0.80327 -0.858168,0.16681 -1.627981,0.46526 -2.479866,0.64263 -1.992456,0.4149 -0.805847,-0.14952 -2.755407,0.48197 -0.401446,0.13003 -0.66911,0.39286 -1.102165,0.48197 -1.155532,0.2378 -2.41242,0.26887 -3.58203,0.48198 -0.61515,0.11209 -1.98147,0.62277 -2.755409,0.80328 -1.282881,0.29919 -2.562724,0.52016 -3.8575724,0.80327 -0.6636902,0.14513 -1.4916375,0.46455 -2.2043265,0.64263 -0.5997541,0.14988 -2.3065762,0.73788 -2.7554075,0.80329 -0.1969701,0.0286 -2.2908973,0.11018 -2.4798676,0 -0.064954,-0.0379 0,-0.1071 0,-0.16067 0,-0.58838 -0.03774,-1.21261 -0.275541,-1.76721 -0.049827,-0.11617 -0.2257317,-0.20516 -0.2755399,-0.32131 -0.1151748,-0.26862 0.2093138,-0.71986 0,-0.96396 -0.39996,-0.46638 -1.16280049,-0.8563 -1.65324819,-1.28524 -0.2024547,-0.17706 -0.011682,-1.67929 -0.2755398,-1.76723 -0.60732236,-0.20234 -1.28585351,-0.3213 -1.92878451,-0.48195 z"
       id="path8"
       clip-path="url(#clipPath9)"
       transform="matrix(0.97818115,0.01416334,-0.01436512,0.96444201,2.7771759,4.1505265)" />
    <path
       style="fill:#dd7f40;fill-opacity:1;stroke-width:0.497621"
       d="M 80.362108,98.832215 114.76895,95.35139 136.14507,97.40508 115.3597,96.322029 Z"
       id="path12" />
    <path
       style="fill:#552200;fill-opacity:1;stroke-width:0.422138"
       d="m 113.38145,93.828031 -34.006451,4.703553 34.006451,-2.743737 23.9108,1.371868 -26.0362,-4.115607"
       id="path11" />
    <path
       style="fill:#dd7f40;fill-opacity:1;stroke-width:0.394938"
       d="m 156.97284,112.17165 5.72873,-1.81184 -4.18042,2.45891 -24.46318,21.48332 z"
       id="path14" />
    <path
       style="fill:#501616;fill-opacity:1;stroke-width:0.401304"
       d="m 133.19655,135.09905 c 22.81271,-24.21418 22.81271,-24.21418 22.81271,-24.21418 l 7.75634,-1.36035 -6.99591,3.12879 z"
       id="path13" />
    <path
       style="fill:#dd7f40;fill-opacity:1;stroke-width:0.397342"
       d="m 61.468043,114.70929 15.536136,-8.30696 -14.305555,8.57066 -5.229988,10.68038 z"
       id="path16" />
    <path
       style="fill:#501616;fill-opacity:1;stroke-width:0.356841"
       d="m 60.133766,114.79387 -2.949628,11.713 4.290366,-11.10295 15.150346,-8.90676 z"
       id="path15" />
    <path
       style="fill:#dd7f40;fill-opacity:1;stroke-width:0.275757"
       d="m 79.564664,127.73969 20.483866,10.7161 -19.718112,-9.69552 -0.191439,1.93911 z"
       id="path18" />
    <text
       xml:space="preserve"
       transform="scale(0.26458333)"
       id="text45"
       style="text-align:start;writing-mode:lr-tb;direction:ltr;white-space:pre;shape-inside:url(#rect45);display:inline;opacity:1;fill:#7eb765;fill-opacity:1;stroke-width:1.00157;stroke-dasharray:none" />
    <text
       xml:space="preserve"
       transform="scale(0.26458333)"
       id="text1"
       style="font-size:66.6667px;font-family:Impact;-inkscape-font-specification:'Impact, Normal';text-align:start;writing-mode:lr-tb;direction:ltr;white-space:pre;shape-inside:url(#rect2);display:inline;fill:#ffffff;stroke-width:1.00157" />
    <text
       xml:space="preserve"
       transform="scale(0.26458333)"
       id="text2"
       style="font-style:normal;font-variant:normal;font-weight:normal;font-stretch:normal;font-size:66.6667px;font-family:Beachday;-inkscape-font-specification:'Beachday, Normal';font-variant-ligatures:normal;font-variant-caps:normal;font-variant-numeric:normal;font-variant-east-asian:normal;text-align:start;writing-mode:lr-tb;direction:ltr;white-space:pre;shape-inside:url(#rect3);display:inline;fill:#ffffff;stroke-width:1.00157" />
    <text
       xml:space="preserve"
       transform="matrix(0.28615772,0,0,0.32792644,10.425761,-112.109)"
       id="text5"
       style="font-style:normal;font-variant:normal;font-weight:normal;font-stretch:normal;font-size:110.114px;font-family:Beachday;-inkscape-font-specification:'Beachday, Normal';font-variant-ligatures:normal;font-variant-caps:normal;font-variant-numeric:normal;font-variant-east-asian:normal;text-align:start;writing-mode:lr-tb;direction:ltr;white-space:pre;shape-inside:url(#rect5);display:inline;fill:#f2d2a9;fill-opacity:1;stroke-width:1.00157"><tspan
         x="218.00977"
         y="739.21738"
         id="tspan2">quit</tspan></text>
  </g>
</svg>
